<svg width="123" height="100" viewBox="0 0 123 100" fill="none" xmlns="http://www.w3.org/2000/svg">
<line x1="75.5801" y1="20.7517" x2="47.8779" y2="48.4538" stroke="white" stroke-width="9" stroke-linecap="round"/>
<line x1="88.4512" y1="37.4069" x2="45.6085" y2="80.2496" stroke="white" stroke-width="9" stroke-linecap="round"/>
<line x1="103.592" y1="51.7902" x2="60.7491" y2="94.6329" stroke="white" stroke-width="9" stroke-linecap="round"/>
<line x1="35.7663" y1="36.3418" x2="47.571" y2="48.1464" stroke="white" stroke-width="9" stroke-linecap="round"/>
<path d="M15.397 45.0474L45.2985 79.8701" stroke="white" stroke-width="9" stroke-linecap="round"/>
<path d="M11.6004 47.5143C8.7323 41.9917 7.91702 35.6887 9.30097 29.7372C10.6849 23.7857 14.1774 18.5756 19.1513 15.0426C24.1252 11.5096 30.2545 9.88512 36.4386 10.461C42.6227 11.0368 48.4563 13.7752 52.8919 18.1844C52.8919 18.1844 55.8643 21.5039 52.8974 24.3882C49.9306 27.2724 46.6232 24.3838 46.6232 24.3838C43.7157 21.4936 39.8918 19.6986 35.8381 19.3211C31.7844 18.9436 27.7666 20.0084 24.5062 22.3243C21.2458 24.6402 18.9565 28.0555 18.0493 31.9567C17.1421 35.8579 17.6765 39.9896 19.5566 43.6096L11.6004 47.5143Z" fill="white"/>
<path d="M73.0878 16.9588C78.2053 13.4183 84.3556 11.816 90.434 12.4397C96.5123 13.0634 102.121 15.8722 106.252 20.3618C110.383 24.8513 112.766 30.7274 112.973 36.9348C113.18 43.1421 111.198 49.2741 107.382 54.2295L100.443 48.7911C102.944 45.5429 104.244 41.5234 104.108 37.4544C103.972 33.3855 102.41 29.5337 99.702 26.5908C96.9941 23.6479 93.3178 21.8067 89.3334 21.3978C85.349 20.989 81.3175 22.0393 77.963 24.3601L73.0878 16.9588Z" fill="white"/>
</svg>
