<svg width="328" height="197" viewBox="0 0 328 197" fill="none" xmlns="http://www.w3.org/2000/svg">
<g clip-path="url(#clip0_266_612)">
<path d="M2.96094 106.506L52.7054 112.296L49.7486 137.702L0.00412043 131.913L2.96094 106.506Z" fill="#082F2F"/>
<path d="M49.744 137.702L0 131.911L52.702 112.296L49.744 137.702Z" fill="#336666"/>
<path d="M0 131.911L49.744 137.702L2.958 106.505L0 131.911Z" fill="#336666"/>
<path d="M272.292 34.3109L238.106 33.4289L245.732 11.1069L276.222 18.7529L272.292 34.3109Z" fill="#082F2F"/>
<path d="M272.292 34.3109L238.106 33.4289L276.222 18.7529L272.292 34.3109Z" fill="#336666"/>
<path d="M238.106 33.4289L272.292 34.3109L245.732 11.1069L238.106 33.4289Z" fill="#336666"/>
<path d="M325.473 102.713L304.854 142.306L284.335 132.174L304.032 90.8501L325.473 102.713Z" fill="#082F2F"/>
<path d="M325.473 102.713L304.854 142.306L304.032 90.8501L325.473 102.713Z" fill="#336666"/>
<path d="M304.854 142.306L325.473 102.713L284.335 132.174L304.854 142.306Z" fill="#336666"/>
<path d="M48.017 76.4353C51.255 64.5893 61.166 56.8403 72.563 51.5473C76.481 49.7273 88.578 46.6953 88.578 46.6953C88.578 46.6953 100.528 55.7573 103.928 58.5423C96.073 61.8223 89.369 64.5993 82.766 69.8773C74.998 76.0873 71.777 83.8293 65.762 91.2813C62.375 88.5523 47.76 77.3783 48.017 76.4353Z" fill="#336666"/>
<path d="M180.638 11.1091C169.801 13.7821 159.555 15.9481 148.457 17.7811C151.75 21.3271 155.048 25.0191 158.308 28.3861C163.191 33.4281 163.435 33.7641 169.473 29.9651C178.333 24.3911 186.541 17.6291 195.79 12.5871C194.37 12.3651 185.815 9.2681 180.638 11.1091Z" fill="#336666"/>
<path d="M169.789 29.104C181.509 19.138 183.495 12.492 182.956 0C188.646 1.383 197.102 8.418 201.685 12.071C190.43 21.198 165.876 31.996 165.876 31.996C165.876 31.996 169.012 29.764 169.789 29.104Z" fill="#082F2F"/>
<path d="M327.8 156.718L279.186 196.802L262.82 156.538L314.467 130.329L327.8 156.718Z" fill="#082F2F"/>
<path d="M327.8 156.718L279.186 196.802L314.467 130.329L327.8 156.718Z" fill="#336666"/>
<path d="M279.186 196.802L327.8 156.718L262.82 156.538L279.186 196.802Z" fill="#336666"/>
<path d="M292.108 43.3491L310.322 73.8131L322.881 70.8611L312.666 43.8291L292.108 43.3491Z" fill="#082F2F"/>
<path d="M292.108 43.3491L310.322 73.8131L312.666 43.8291L292.108 43.3491Z" fill="#336666"/>
<path d="M310.322 73.8131L292.108 43.3491L322.881 70.8611L310.322 73.8131Z" fill="#336666"/>
</g>
<defs>
<clipPath id="clip0_266_612">
<rect width="327.8" height="196.802" fill="white"/>
</clipPath>
</defs>
</svg>
